<svg width="50" height="50" viewBox="0 0 50 50" fill="none" xmlns="http://www.w3.org/2000/svg">
<g clip-path="url(#clip0_76_21)">
<path d="M12.6409 50C13.6876 50 14.6538 50 15.7005 50C18.7601 50 21.8196 50 24.8792 50C28.9855 50 33.0918 50 37.1981 50C44.4444 49.9195 49.9195 44.6055 49.9195 37.3591C49.9195 29.1465 49.9195 20.934 49.9195 12.8019C49.9195 5.55556 44.4444 0.161031 37.1981 0.0805153C29.066 0 20.8535 0 12.6409 0C5.55556 0.0805153 0.0805153 5.47504 0 12.5604C0 20.8535 0 29.1465 0 37.3591C0.0805153 44.525 5.47504 49.9195 12.6409 50ZM18.0354 18.8406C18.8406 18.7601 19.5652 18.7601 20.5314 18.6796C20.7729 15.781 20.2899 12.5604 23.1884 10.628C25.8454 8.9372 28.8245 9.58132 31.8841 9.42029C31.8841 11.2721 31.8841 12.8019 31.8841 14.2512C30.4348 14.5733 28.8245 14.5733 27.6973 15.2979C27.1337 15.7005 27.2947 17.3108 27.1337 18.599C28.8245 18.599 30.2738 18.599 32.1256 18.599C31.9646 20.7729 31.8035 22.7858 31.6425 24.8792C30.1127 24.8792 28.6634 24.8792 26.9726 24.8792C26.9726 30.0322 26.9726 35.0242 26.9726 40.1771C24.9597 40.1771 23.1079 40.1771 21.095 40.1771C21.095 35.1852 21.095 30.1932 21.095 25.0403C19.9678 24.9597 19.0821 24.8792 18.0354 24.8792C18.0354 22.8663 18.0354 20.934 18.0354 18.8406Z" fill="#6F4C3E"/>
</g>
<defs>
<clipPath id="clip0_76_21">
<rect width="50" height="50" fill="white"/>
</clipPath>
</defs>
</svg>
