<svg width="51" height="50" viewBox="0 0 51 50" fill="none" xmlns="http://www.w3.org/2000/svg">
<g clip-path="url(#clip0_76_31)">
<path d="M50.2588 12.8019C50.1783 5.55556 44.7837 0.0805153 37.5374 0.0805153C29.3248 0 21.1928 0 12.9802 0C5.73383 0.0805153 0.339305 5.47504 0.258789 12.7214C0.258789 20.934 0.258789 29.066 0.258789 37.2786C0.258789 44.4444 5.65331 49.839 12.8192 49.9195C21.1122 50 29.3248 50 37.6179 49.9195C44.7837 49.839 50.1783 44.4444 50.2588 37.2786C50.2588 36.2319 50.2588 35.2657 50.2588 34.219C50.2588 31.1594 50.2588 28.0998 50.2588 25.0403C50.2588 21.0145 50.2588 16.9082 50.2588 12.8019ZM40.5969 34.5411C40.5164 38.0837 38.423 40.2576 34.8804 40.3382C28.4391 40.4187 21.9979 40.4187 15.5567 40.3382C12.175 40.2576 10.0011 38.1643 10.0011 34.8631C9.92062 28.2609 9.92062 21.7391 10.0011 15.1369C10.0816 11.9163 12.2556 9.82287 15.4762 9.74235C22.0784 9.66184 28.6002 9.66184 35.2024 9.74235C38.423 9.82287 40.5164 12.0773 40.5969 15.2174C40.6775 18.438 40.5969 21.7391 40.5969 24.9597C40.5969 28.0998 40.5969 31.3205 40.5969 34.5411Z" fill="#6F4C3E"/>
<path d="M33.1896 21.9004C34.1558 26.0872 33.5116 29.6299 29.8079 32.0454C26.9094 33.9777 23.7693 33.9777 20.7902 32.1259C17.006 29.7104 16.2009 26.1678 17.167 21.981C15.5567 21.981 14.0269 21.981 12.4166 21.981C12.4166 26.1678 12.3361 30.1935 12.4166 34.2193C12.4971 36.4737 13.7049 37.762 16.0398 37.762C22.159 37.8425 28.2782 37.8425 34.3168 37.762C36.1687 37.762 37.6984 36.7958 37.779 34.7829C37.94 30.5156 37.8595 26.2483 37.8595 21.9004C36.2492 21.9004 34.7999 21.9004 33.1896 21.9004Z" fill="#6F4C3E"/>
<path d="M25.2192 30.4345C28.2787 30.4345 30.6942 28.019 30.7747 25.04C30.7747 21.9804 28.4398 19.4844 25.4607 19.4844C22.3206 19.4039 19.9051 21.8194 19.9051 24.9595C19.7441 28.019 22.1596 30.4345 25.2192 30.4345Z" fill="#6F4C3E"/>
<path d="M37.1349 13.043C35.4441 13.043 33.8338 13.043 32.0625 13.043C32.0625 14.8143 32.0625 16.5051 32.0625 18.1959C33.8338 18.1959 35.4441 18.1959 37.1349 18.1959C37.1349 16.4246 37.1349 14.8143 37.1349 13.043Z" fill="#6F4C3E"/>
</g>
<defs>
<clipPath id="clip0_76_31">
<rect width="51" height="50" fill="white"/>
</clipPath>
</defs>
</svg>
