<svg width="51" height="50" viewBox="0 0 51 50" fill="none" xmlns="http://www.w3.org/2000/svg">
<g clip-path="url(#clip0_76_41)">
<path d="M50.0656 8.93685C48.2138 3.3813 43.7049 0.0801671 37.7468 -0.000348229C29.5342 -0.000348229 21.4022 -0.0808635 13.1896 -0.000348229C6.10432 0.0801671 0.709801 5.55521 0.709801 12.5601C0.629285 20.8532 0.629285 29.2267 0.709801 37.5198C0.709801 44.4441 6.10432 49.9192 13.0286 49.9192C21.4827 49.9997 29.9368 49.9997 38.3909 49.9192C41.209 49.9192 43.7049 48.8725 45.9594 47.1817C48.4553 45.2493 49.5826 42.5923 50.7098 39.7743C50.7098 29.8709 50.7098 19.9675 50.7098 10.1446C50.4682 9.74201 50.2267 9.41995 50.0656 8.93685ZM40.1623 16.6664C38.1494 18.1156 38.0689 20.209 37.6663 22.383C35.1703 35.668 21.7243 40.6599 11.4183 35.2654C11.3378 35.1849 11.2573 35.1044 11.3378 35.1849C13.9143 34.3797 16.5713 33.5746 19.3088 32.7694C19.3088 32.5279 19.3088 32.2863 19.3088 32.1253C16.8933 31.4812 14.7194 30.5955 13.8338 27.9385C14.5584 27.858 15.2025 27.7775 16.3297 27.697C13.5922 26.4087 11.7404 24.7179 11.6598 21.7388C12.3845 21.8999 13.0286 21.9804 14.0753 22.1414C11.6598 19.6454 10.9352 17.0689 12.3845 13.9288C16.0077 17.7131 20.114 20.1285 25.3475 20.3701C25.3475 19.7259 25.3475 19.2429 25.3475 18.7598C25.6695 14.1704 30.2589 11.4329 34.3652 13.3652C37.1027 14.6535 37.1027 14.6535 40.4038 13.2847C39.4376 14.573 38.874 15.4586 38.0689 16.5053C38.9545 16.3443 39.5987 16.1833 40.5648 16.0222C40.3233 16.3443 40.2428 16.5858 40.1623 16.6664Z" fill="#6F4C3E"/>
</g>
<defs>
<clipPath id="clip0_76_41">
<rect width="51" height="50" fill="white"/>
</clipPath>
</defs>
</svg>
