<svg width="51" height="50" viewBox="0 0 51 50" fill="none" xmlns="http://www.w3.org/2000/svg">
<g clip-path="url(#clip0_76_49)">
<path d="M38.3281 0.0805153C30.035 0 21.8225 0 13.5294 0C6.36353 0 0.969027 5.47504 0.888512 12.5604C0.807996 20.8535 0.807996 29.066 0.888512 37.3591C0.888512 44.525 6.36353 49.9195 13.5294 49.9195C17.6357 49.9195 21.742 49.9195 25.8482 49.9195C28.9883 49.9195 32.1284 49.9195 35.188 49.9195C36.2347 49.9195 37.2814 49.9195 38.3281 49.9195C45.3329 49.839 50.8079 44.4444 50.8885 37.4396C50.969 29.1465 50.969 20.7729 50.8885 12.4799C50.8079 5.55556 45.3329 0.0805153 38.3281 0.0805153ZM41.0656 31.0789C40.9851 34.4605 39.4553 35.9098 36.0737 35.9903C32.6115 36.0709 29.2299 35.9903 25.7677 35.9903C25.7677 36.1514 25.7677 36.3124 25.7677 36.3929C22.3861 36.2319 19.0044 36.0709 15.6228 35.9098C12.3217 35.7488 10.7919 34.4605 10.6308 31.1594C10.4698 26.9726 10.4698 22.8663 10.6308 18.6796C10.7113 15.4589 12.2411 13.9291 15.5423 13.8486C22.3861 13.6876 29.3104 13.6876 36.1542 13.8486C39.4553 13.9291 40.9046 15.4589 40.9851 18.6796C41.2266 22.8663 41.2266 26.9726 41.0656 31.0789Z" fill="#6F4C3E"/>
<path d="M22.8691 29.1466C25.6872 27.6168 28.2637 26.2481 31.1622 24.6378C28.2637 23.0275 25.6067 21.6587 22.8691 20.1289C22.8691 23.269 22.8691 26.087 22.8691 29.1466Z" fill="#6F4C3E"/>
</g>
<defs>
<clipPath id="clip0_76_49">
<rect width="51" height="50" fill="white"/>
</clipPath>
</defs>
</svg>
